<?xml version="1.0" encoding="UTF-8" standalone="no"?>
<!DOCTYPE svg PUBLIC "-//W3C//DTD SVG 1.1//EN" "http://www.w3.org/Graphics/SVG/1.1/DTD/svg11.dtd">
<svg width="100%" height="100%" viewBox="0 0 800 800" version="1.1" xmlns="http://www.w3.org/2000/svg" xmlns:xlink="http://www.w3.org/1999/xlink" xml:space="preserve" xmlns:serif="http://www.serif.com/" style="fill-rule:evenodd;clip-rule:evenodd;stroke-linejoin:round;stroke-miterlimit:2;">
    <g transform="matrix(-2.681,-2.661282,2.661282,-2.681,528.548359,2832.225941)">
        <path d="M481.274,414.175C481.703,406.588 483.742,398.97 487.542,391.819C501.601,365.364 534.443,355.315 560.898,369.374L535.442,417.274L510.196,464.78L537.171,464.78C537.171,494.739 512.885,519.024 482.927,519.024C452.969,519.024 428.683,494.739 428.683,464.78L457.756,464.78L427.334,420.013L396.846,375.148C421.624,358.31 455.361,364.746 472.199,389.525C477.378,397.145 480.355,405.613 481.274,414.175ZM509.259,464.78C493.177,455.923 483.327,440.051 481.498,423.016C480.586,439.252 472.413,454.897 457.965,464.78L482.927,464.78L509.259,464.78Z" style="fill:rgb(0,0,51);"/>
    </g>
</svg>
